<svg width="295" height="59" viewBox="0 0 295 59" fill="none" xmlns="http://www.w3.org/2000/svg">
<path d="M42.0456 48.8306L2.56615 21.5977C-1.43461 18.8381 -0.0746145 13.0922 4.91423 11.741L46.8738 0.352723C47.7626 0.0320001 48.7152 -0.0721106 49.6523 0.0490339C50.5894 0.170178 51.4841 0.513083 52.2622 1.04929C53.0403 1.58549 53.6792 2.29953 54.126 3.13215C54.5728 3.96476 54.8146 4.89194 54.8313 5.83672L52.3446 44.4557C52.0497 49.0397 46.0464 51.5902 42.0456 48.8306Z" fill="#E9327C"/>
<path d="M29.5236 55.5531L6.26504 10.0681C5.73338 9.02755 5.49942 7.86037 5.58897 6.69528C5.67852 5.5302 6.08809 4.41247 6.77253 3.46538C7.45696 2.51828 8.38966 1.7786 9.46777 1.32792C10.5459 0.87723 11.7275 0.733045 12.8824 0.911259L55.9863 7.56379C56.9787 7.71697 57.9205 8.10351 58.7344 8.69164C59.5483 9.27976 60.211 10.0527 60.6679 10.9468C61.1249 11.841 61.3631 12.8308 61.3629 13.8349C61.3628 14.8391 61.1243 15.8288 60.667 16.7228L40.8107 55.5553C40.2775 56.5929 39.4686 57.4634 38.4728 58.0711C37.477 58.6788 36.333 59.0002 35.1665 59C33.9999 58.9998 32.856 58.6779 31.8605 58.0698C30.865 57.4617 30.0564 56.5909 29.5236 55.5531Z" fill="#1DACE3"/>
<path d="M54.7257 7.36843L33.2387 4.05206L6.85742 11.2151L17.3875 31.8153L42.0456 48.8307C42.5896 49.2018 43.188 49.4862 43.8194 49.6735L53.1853 31.3576L54.7257 7.36843Z" fill="#3A68B8"/>
<path d="M163.562 12.6849C163.562 11.8862 163.799 11.1055 164.243 10.4414C164.687 9.77734 165.317 9.25975 166.055 8.95411C166.793 8.64847 167.605 8.56851 168.388 8.72432C169.172 8.88014 169.891 9.26474 170.456 9.82949C171.021 10.3942 171.405 11.1138 171.561 11.8971C171.717 12.6804 171.637 13.4924 171.331 14.2302C171.026 14.9681 170.508 15.5988 169.844 16.0425C169.18 16.4862 168.399 16.7231 167.601 16.7231C166.533 16.7122 165.512 16.2832 164.757 15.5283C164.002 14.7733 163.573 13.7525 163.562 12.6849ZM164.236 18.6971H170.968V41.1304H164.236V18.6971Z" fill="white"/>
<path d="M200.038 29.9139C200.116 31.3967 199.9 32.8803 199.403 34.2795C198.906 35.6786 198.137 36.9656 197.141 38.0666C196.144 39.1675 194.94 40.0605 193.597 40.6944C192.255 41.3282 190.8 41.6904 189.316 41.7599C188.069 41.8279 186.822 41.6174 185.665 41.144C184.509 40.6705 183.473 39.9458 182.631 39.0223V50.1048H175.901V18.6972H182.631V20.8055C183.473 19.8824 184.509 19.1581 185.666 18.685C186.822 18.2119 188.069 18.0019 189.316 18.0701C190.8 18.1394 192.254 18.5012 193.597 19.1348C194.94 19.7685 196.144 20.6613 197.141 21.7621C198.137 22.8628 198.906 24.1497 199.403 25.5487C199.9 26.9477 200.116 28.4312 200.038 29.9139ZM193.308 29.9139C193.282 28.8636 192.946 27.8444 192.344 26.9839C191.741 26.1233 190.898 25.4597 189.92 25.076C188.941 24.6924 187.872 24.6057 186.845 24.8269C185.818 25.048 184.879 25.5672 184.145 26.3195C183.412 27.0717 182.916 28.0236 182.721 29.0559C182.526 30.0883 182.64 31.1553 183.048 32.1234C183.456 33.0915 184.141 33.9176 185.016 34.4985C185.892 35.0794 186.919 35.3892 187.97 35.3891C188.691 35.4216 189.411 35.3011 190.083 35.0356C190.755 34.7701 191.362 34.3655 191.867 33.8484C192.371 33.3314 192.76 32.7135 193.008 32.0354C193.257 31.3573 193.359 30.6343 193.308 29.9139Z" fill="white"/>
<path d="M220.81 34.3966C220.81 39.5571 216.323 41.7556 211.477 41.7556C209.52 41.9327 207.554 41.5184 205.835 40.5662C204.115 39.6141 202.721 38.1678 201.832 36.4146L207.664 33.0961C207.901 33.9065 208.409 34.6109 209.103 35.0916C209.797 35.5722 210.635 35.8 211.477 35.7368C213.093 35.7368 213.898 35.2417 213.898 34.346C213.898 31.8769 202.862 33.1797 202.862 25.4158C202.862 20.526 206.988 18.0591 211.664 18.0591C213.418 18.004 215.155 18.4203 216.694 19.2644C218.232 20.1085 219.516 21.3497 220.412 22.8587L214.671 25.955C214.419 25.3661 214 24.8642 213.466 24.512C212.931 24.1598 212.305 23.9728 211.664 23.9744C210.498 23.9744 209.781 24.4145 209.781 25.231C209.774 27.8057 220.81 26.1002 220.81 34.3966Z" fill="white"/>
<path d="M245.407 18.6968V41.1301H238.677V39.0175C237.9 39.9482 236.913 40.6814 235.797 41.1573C234.682 41.6331 233.47 41.838 232.26 41.7551C227.729 41.7551 223.871 38.5246 223.871 32.4662V18.6968H230.601V31.4847C230.544 32.0194 230.605 32.56 230.778 33.0689C230.952 33.5778 231.234 34.0427 231.606 34.4313C231.977 34.8199 232.429 35.1228 232.93 35.3189C233.431 35.515 233.968 35.5997 234.505 35.5669C236.971 35.5669 238.686 34.1321 238.686 30.9456V18.6968H245.407Z" fill="white"/>
<path d="M283.979 27.3538V41.1298H277.25V27.9392C277.25 25.6967 276.171 24.2597 274.019 24.2597C271.774 24.2597 270.52 25.831 270.52 28.4784V41.1298H263.788V27.9392C263.788 25.6967 262.712 24.2597 260.558 24.2597C258.315 24.2597 257.059 25.831 257.059 28.4784V41.1298H250.329V18.6965H257.07V20.7519C257.767 19.8367 258.683 19.1108 259.733 18.6407C260.783 18.1705 261.935 17.9711 263.082 18.0605C264.234 18.0042 265.381 18.2472 266.411 18.7659C267.441 19.2847 268.319 20.0614 268.96 21.0204C269.706 20.017 270.694 19.2191 271.832 18.7015C272.97 18.1838 274.221 17.9633 275.467 18.0605C280.617 18.0693 283.979 21.7466 283.979 27.3538Z" fill="white"/>
<path d="M289.681 18.5582C292.44 18.5582 294.676 16.3216 294.676 13.5627C294.676 10.8038 292.44 8.56726 289.681 8.56726C286.922 8.56726 284.686 10.8038 284.686 13.5627C284.686 16.3216 286.922 18.5582 289.681 18.5582Z" fill="white"/>
<path d="M71.6816 8.37811H78.4134V41.1302H71.6816V8.37811ZM82.2249 29.9136C82.2175 27.5617 82.9082 25.2605 84.2094 23.3013C85.5107 21.3422 87.364 19.8132 89.5348 18.9081C91.7055 18.0029 94.0961 17.7622 96.4037 18.2165C98.7113 18.6708 100.832 19.7996 102.498 21.4601C104.164 23.1205 105.299 25.2378 105.761 27.544C106.222 29.8502 105.989 32.2415 105.091 34.4151C104.192 36.5887 102.669 38.4468 100.714 39.7543C98.7593 41.0617 96.4603 41.7596 94.1084 41.7596C92.5463 41.7763 90.9966 41.4816 89.5497 40.8927C88.1029 40.3037 86.7879 39.4324 85.6815 38.3295C84.5752 37.2267 83.6997 35.9144 83.1062 34.4694C82.5127 33.0244 82.2131 31.4757 82.2249 29.9136ZM99.2755 29.9136C99.2491 28.899 98.9241 27.9148 98.3413 27.084C97.7584 26.2532 96.9435 25.6127 95.9985 25.2427C95.0536 24.8726 94.0205 24.7893 93.0284 25.0034C92.0364 25.2174 91.1295 25.7192 90.4211 26.4459C89.7128 27.1727 89.2345 28.0922 89.046 29.0894C88.8575 30.0866 88.9672 31.1172 89.3615 32.0524C89.7557 32.9876 90.4169 33.7857 91.2624 34.3471C92.1079 34.9084 93.1001 35.208 94.115 35.2083C94.8099 35.2281 95.5014 35.1037 96.1459 34.843C96.7904 34.5822 97.3738 34.1908 97.8595 33.6933C98.3452 33.1959 98.7225 32.6032 98.9677 31.9527C99.2129 31.3021 99.3207 30.6078 99.2843 29.9136H99.2755ZM132.833 18.6903V40.0035C132.833 47.5407 126.955 50.725 120.989 50.725C118.889 50.8835 116.786 50.4608 114.91 49.5032C113.035 48.5455 111.459 47.09 110.356 45.296L116.097 41.9753C116.561 42.9115 117.299 43.684 118.213 44.1894C119.127 44.6947 120.174 44.9088 121.214 44.8031C121.877 44.8937 122.552 44.8342 123.189 44.6289C123.827 44.4237 124.41 44.078 124.896 43.6173C125.381 43.1566 125.758 42.5928 125.996 41.9673C126.235 41.3418 126.33 40.6707 126.275 40.0035V37.9393C125.487 38.9033 124.484 39.6692 123.346 40.1756C122.208 40.6819 120.968 40.9147 119.724 40.8551C116.763 40.7631 113.954 39.5221 111.892 37.395C109.83 35.2679 108.676 32.4217 108.676 29.4591C108.676 26.4966 109.83 23.6504 111.892 21.5233C113.954 19.3961 116.763 18.1551 119.724 18.0631C120.968 18.0036 122.208 18.2364 123.346 18.7427C124.484 19.2491 125.487 20.015 126.275 20.979V18.6903H132.833ZM126.284 29.458C126.328 28.3745 126.047 27.3025 125.478 26.3798C124.908 25.4571 124.075 24.726 123.087 24.2804C122.098 23.8347 120.999 23.695 119.93 23.8791C118.861 24.0633 117.872 24.5628 117.09 25.3136C116.307 26.0644 115.767 27.0321 115.539 28.0923C115.311 29.1524 115.405 30.2566 115.809 31.2628C116.214 32.269 116.91 33.1312 117.808 33.7386C118.707 34.3461 119.766 34.6709 120.851 34.6714C121.558 34.7211 122.267 34.6222 122.934 34.3812C123.6 34.1402 124.209 33.7623 124.721 33.2719C125.233 32.7815 125.636 32.1894 125.905 31.5337C126.174 30.878 126.303 30.1732 126.284 29.4646V29.458ZM136.645 29.8982C136.637 27.5463 137.328 25.245 138.629 23.2859C139.93 21.3268 141.784 19.7978 143.954 18.8926C146.125 17.9875 148.516 17.7468 150.823 18.2011C153.131 18.6554 155.252 19.7842 156.918 21.4447C158.583 23.1051 159.719 25.2224 160.18 27.5286C160.642 29.8348 160.409 32.2261 159.51 34.3997C158.612 36.5733 157.089 38.4314 155.134 39.7389C153.179 41.0463 150.88 41.7442 148.528 41.7442C146.967 41.7609 145.419 41.4667 143.973 40.8787C142.527 40.2907 141.213 39.4207 140.107 38.3195C139.001 37.2183 138.125 35.9079 137.53 34.4647C136.936 33.0215 136.635 31.4744 136.645 29.9136V29.8982ZM153.695 29.8982C153.669 28.883 153.344 27.8981 152.761 27.0666C152.178 26.2351 151.363 25.5939 150.418 25.2234C149.472 24.8529 148.439 24.7694 147.446 24.9835C146.453 25.1975 145.546 25.6996 144.837 26.4268C144.128 27.154 143.65 28.0741 143.461 29.0719C143.273 30.0698 143.383 31.101 143.777 32.0367C144.172 32.9723 144.834 33.7708 145.68 34.3322C146.526 34.8936 147.519 35.193 148.535 35.1929C149.227 35.2113 149.917 35.0864 150.559 34.8261C151.201 34.5657 151.783 34.1755 152.267 33.6799C152.752 33.1842 153.129 32.5939 153.374 31.9458C153.62 31.2977 153.729 30.6058 153.695 29.9136V29.8982Z" fill="white"/>
</svg>
