<svg width="213" height="59" viewBox="0 0 213 59" fill="none" xmlns="http://www.w3.org/2000/svg">
<path fill-rule="evenodd" clip-rule="evenodd" d="M105.909 6.4351C107.962 4.38239 111.29 4.38239 113.343 6.4351C115.396 8.48796 115.396 11.8162 113.343 13.869L100.827 26.3845C97.2341 21.5688 97.6244 14.7197 101.998 10.3457L105.909 6.4351Z" fill="#4F9E91"/>
<path fill-rule="evenodd" clip-rule="evenodd" d="M123.8 34.672C125.854 36.7247 125.854 40.0531 123.8 42.1058C121.749 44.1586 118.42 44.1586 116.367 42.1058L103.852 29.5904C108.667 25.9971 115.516 26.3873 119.89 30.7614L123.8 34.672Z" fill="#EBE1C5"/>
<path fill-rule="evenodd" clip-rule="evenodd" d="M95.5633 52.5645C93.5106 54.6173 90.1822 54.6173 88.1295 52.5645C86.0766 50.5116 86.0766 47.1834 88.1295 45.1305L100.645 32.6152C104.238 37.4309 103.848 44.28 99.4739 48.6539L95.5633 52.5645Z" fill="#EBCC6E"/>
<path fill-rule="evenodd" clip-rule="evenodd" d="M77.6715 24.3266C75.6186 22.2738 75.6186 18.9456 77.6715 16.8927C79.7243 14.8398 83.0526 14.8398 85.1054 16.8927L97.6209 29.4082C92.8052 33.0015 85.956 32.6111 81.5821 28.2372L77.6715 24.3266Z" fill="#ED834E"/>
<path fill-rule="evenodd" clip-rule="evenodd" d="M103.111 51.0315C106.138 47.666 107.545 43.3595 107.332 39.1195L113.342 45.1302C113.357 45.1451 113.372 45.16 113.387 45.175V49.4662C113.387 52.3693 111.034 54.7227 108.131 54.7227C105.773 54.7227 103.778 53.1701 103.111 51.0315Z" fill="#ED834E"/>
<path fill-rule="evenodd" clip-rule="evenodd" d="M79.2039 31.8751C82.5693 34.9022 86.8757 36.3091 91.1158 36.0956L85.1053 42.1063C85.0902 42.1212 85.0752 42.1363 85.0604 42.1512H80.7692C77.8661 42.1514 75.5127 39.7978 75.5127 36.8947C75.5127 34.5368 77.0653 32.5414 79.2039 31.8751Z" fill="#4F9E91"/>
<path fill-rule="evenodd" clip-rule="evenodd" d="M122.268 27.1248C118.903 24.0978 114.596 22.6909 110.356 22.9042L116.367 16.8937C116.382 16.8787 116.397 16.8637 116.412 16.8486H120.703C123.607 16.8486 125.96 19.2022 125.96 22.1053C125.96 24.4633 124.407 26.4586 122.268 27.1248Z" fill="#EBCC6E"/>
<path fill-rule="evenodd" clip-rule="evenodd" d="M98.3611 7.96787C95.334 11.3332 93.9273 15.6397 94.1406 19.8798L88.1301 13.8692C88.115 13.8543 88.1 13.8393 88.085 13.8244V9.53318C88.085 6.63007 90.4384 4.27649 93.3415 4.27649C95.6995 4.27649 97.6948 5.82922 98.3611 7.96787Z" fill="#EBE1C5"/>
<path fill-rule="evenodd" clip-rule="evenodd" d="M93.3413 0C88.0762 0 83.8079 4.26828 83.8079 9.5334V11.3876C80.6403 10.56 77.1298 11.3872 74.6475 13.8694C70.9245 17.5925 70.9245 23.6287 74.6475 27.3517L75.9586 28.6628C73.1336 30.3174 71.2363 33.3846 71.2363 36.8949C71.2363 42.16 75.5046 46.4283 80.7697 46.4283H82.6238C81.7962 49.5959 82.6233 53.1064 85.1056 55.5885C88.8286 59.3115 94.8649 59.3115 98.5879 55.5885L102.498 51.678C105.948 48.2284 107.559 43.6363 107.332 39.1196L113.343 45.1303C117.066 48.8533 123.102 48.8533 126.825 45.1303C130.548 41.4072 130.548 35.371 126.825 31.6481L125.515 30.3372C128.338 28.6826 130.236 25.6154 130.236 22.1051C130.236 16.84 125.967 12.5717 120.703 12.5717H118.849C119.676 9.40397 118.849 5.89349 116.367 3.41122C112.644 -0.31182 106.608 -0.31182 102.885 3.41122L98.974 7.32183C95.5243 10.7715 93.9132 15.3634 94.1405 19.8801L88.1299 13.8694C88.1148 13.8545 88.0998 13.8395 88.0847 13.8246V9.5334C88.0847 6.63029 90.4382 4.27686 93.3413 4.27686C95.6993 4.27686 97.6946 5.82944 98.3609 7.96809C98.5583 7.74858 98.7626 7.53306 98.9738 7.32183L101.573 4.72225C99.9188 1.89724 96.8516 0 93.3413 0ZM116.412 16.8486C116.397 16.8635 116.382 16.8786 116.367 16.8935L110.356 22.904C114.596 22.6907 118.903 24.0975 122.268 27.1247C124.407 26.4584 125.96 24.463 125.96 22.1051C125.96 19.202 123.606 16.8486 120.703 16.8486H116.412ZM85.0606 42.1514C85.0756 42.1363 85.0905 42.1213 85.1056 42.1063L91.1161 36.0957C86.8761 36.3091 82.5698 34.9022 79.2044 31.8753C77.0658 32.5416 75.513 34.5369 75.513 36.8949C75.513 39.798 77.8666 42.1514 80.7697 42.1514H85.0606ZM79.0405 31.7259C78.8774 31.5752 78.7166 31.4206 78.5581 31.2622V31.2623C78.7166 31.4208 78.8774 31.5752 79.0405 31.7259ZM108.131 59C104.621 59 101.554 57.1026 99.8989 54.2776L102.498 51.678C102.71 51.4668 102.914 51.2513 103.112 51.0318C103.778 53.1704 105.773 54.7231 108.131 54.7231C111.034 54.7231 113.388 52.3697 113.388 49.4666V45.1754C114.62 46.3912 116.1 47.2035 117.665 47.6123V49.4666C117.665 54.7317 113.396 59 108.131 59ZM113.343 6.43533C111.29 4.38262 107.962 4.38262 105.909 6.43533L101.998 10.3459C97.6242 14.72 97.2338 21.569 100.827 26.3848L113.343 13.8693C115.396 11.8164 115.396 8.48819 113.343 6.43533ZM123.8 42.1062C125.853 40.0533 125.853 36.7251 123.8 34.6722L119.89 30.7616C115.516 26.3877 108.667 25.9974 103.851 29.5907L116.367 42.1062C118.42 44.159 121.749 44.159 123.8 42.1062ZM95.5637 52.5644C93.5108 54.6172 90.1826 54.6172 88.1297 52.5644C86.077 50.5115 86.077 47.1833 88.1297 45.1304L100.645 32.6149C104.239 37.4307 103.848 44.2799 99.4743 48.6538L95.5637 52.5644ZM77.6717 16.8935C75.619 18.9464 75.619 22.2746 77.6717 24.3275L81.5823 28.2381C85.9563 32.612 92.8054 33.0023 97.6211 29.409L85.1056 16.8935C83.0527 14.8408 79.7245 14.8408 77.6717 16.8935Z" fill="#3D3A2C"/>
<path d="M0.672852 19.2781H5.34806V33.8057H13.3778V37.7414H0.672852V19.2781Z" fill="white"/>
<path d="M21.8664 38.1376C20.2992 38.1376 18.9256 37.8558 17.7457 37.2924C16.5659 36.7112 15.6503 35.9188 14.9987 34.9152C14.3648 33.8938 14.0479 32.7228 14.0479 31.402C14.0479 30.0814 14.3648 28.9192 14.9987 27.9155C15.6503 26.8941 16.5659 26.1017 17.7457 25.5383C18.9256 24.9571 20.2992 24.6666 21.8664 24.6666C23.4336 24.6666 24.8071 24.9571 25.9869 25.5383C27.1667 26.1017 28.0736 26.8941 28.7075 27.9155C29.3591 28.9192 29.6848 30.0814 29.6848 31.402C29.6848 32.7228 29.3591 33.8938 28.7075 34.9152C28.0736 35.9188 27.1667 36.7112 25.9869 37.2924C24.8071 37.8558 23.4336 38.1376 21.8664 38.1376ZM21.8664 34.5189C22.7996 34.5189 23.5392 34.246 24.0851 33.7001C24.6487 33.1366 24.9303 32.3706 24.9303 31.402C24.9303 30.4336 24.6487 29.6764 24.0851 29.1305C23.5392 28.567 22.7996 28.2853 21.8664 28.2853C20.933 28.2853 20.1847 28.567 19.6212 29.1305C19.0753 29.6764 18.8023 30.4336 18.8023 31.402C18.8023 32.3706 19.0753 33.1366 19.6212 33.7001C20.1847 34.246 20.933 34.5189 21.8664 34.5189Z" fill="white"/>
<path d="M38.4174 43.8166C37.5721 43.8166 36.7181 43.7374 35.8552 43.5789C35.01 43.4204 34.2791 43.2091 33.6629 42.9449V39.7225C35.0539 40.3211 36.6388 40.6205 38.4174 40.6205C39.7028 40.6205 40.6273 40.3563 41.1908 39.8281C41.7719 39.2999 42.0625 38.525 42.0625 37.5036V36.7377C41.5518 37.1779 40.9178 37.5212 40.1606 37.7678C39.421 38.0144 38.6286 38.1376 37.7834 38.1376C36.4451 38.1376 35.2653 37.8558 34.2439 37.2924C33.2227 36.7288 32.4214 35.9364 31.8403 34.9152C31.2768 33.8938 30.9951 32.7228 30.9951 31.402C30.9951 30.0638 31.2768 28.884 31.8403 27.8627C32.4038 26.8413 33.1962 26.0576 34.2176 25.5118C35.2388 24.9484 36.4099 24.6666 37.7306 24.6666C39.5444 24.6666 41.0411 25.2213 42.2209 26.3307V25.0627H46.7113V36.8698C46.7113 39.0709 46.0333 40.7791 44.6774 41.9941C43.3392 43.2091 41.2524 43.8166 38.4174 43.8166ZM38.9456 34.5454C39.6676 34.5454 40.3103 34.3605 40.8738 33.9907C41.4373 33.6208 41.8335 33.1278 42.0625 32.5114V30.2928C41.8159 29.6764 41.4109 29.1921 40.8474 28.8399C40.2839 28.4702 39.65 28.2853 38.9456 28.2853C37.9948 28.2853 37.2287 28.567 36.6476 29.1305C36.0665 29.6764 35.7759 30.4247 35.7759 31.3757C35.7759 32.3441 36.0665 33.1189 36.6476 33.7001C37.2287 34.2636 37.9948 34.5454 38.9456 34.5454Z" fill="white"/>
<path d="M55.7092 38.1376C54.1419 38.1376 52.7685 37.8558 51.5887 37.2924C50.4088 36.7112 49.4931 35.9188 48.8416 34.9152C48.2076 33.8938 47.8906 32.7228 47.8906 31.402C47.8906 30.0814 48.2076 28.9192 48.8416 27.9155C49.4931 26.8941 50.4088 26.1017 51.5887 25.5383C52.7685 24.9571 54.1419 24.6666 55.7092 24.6666C57.2764 24.6666 58.6499 24.9571 59.8297 25.5383C61.0095 26.1017 61.9164 26.8941 62.5504 27.9155C63.2018 28.9192 63.5277 30.0814 63.5277 31.402C63.5277 32.7228 63.2018 33.8938 62.5504 34.9152C61.9164 35.9188 61.0095 36.7112 59.8297 37.2924C58.6499 37.8558 57.2764 38.1376 55.7092 38.1376ZM55.7092 34.5189C56.6424 34.5189 57.382 34.246 57.928 33.7001C58.4914 33.1366 58.7732 32.3706 58.7732 31.402C58.7732 30.4336 58.4914 29.6764 57.928 29.1305C57.382 28.567 56.6424 28.2853 55.7092 28.2853C54.7759 28.2853 54.0274 28.567 53.464 29.1305C52.918 29.6764 52.6451 30.4336 52.6451 31.402C52.6451 32.3706 52.918 33.1366 53.464 33.7001C54.0274 34.246 54.7759 34.5189 55.7092 34.5189Z" fill="white"/>
<path d="M138.091 19.2781H142.767V37.7414H138.091V19.2781Z" fill="white"/>
<path d="M145.134 25.0627H149.625V26.3307C150.804 25.2213 152.301 24.6666 154.114 24.6666C155.435 24.6666 156.607 24.9484 157.627 25.5118C158.649 26.0576 159.441 26.8413 160.004 27.8627C160.568 28.8664 160.85 30.0374 160.85 31.3757C160.85 32.6963 160.568 33.8762 160.004 34.9152C159.441 35.9364 158.649 36.7288 157.627 37.2924C156.624 37.8558 155.453 38.1376 154.114 38.1376C153.269 38.1376 152.459 38.0055 151.685 37.7414C150.928 37.4949 150.293 37.1514 149.783 36.7112V43.526H145.134V25.0627ZM152.9 34.5189C153.851 34.5189 154.617 34.2372 155.197 33.6737C155.778 33.1102 156.07 32.3441 156.07 31.3757C156.07 30.4071 155.778 29.65 155.197 29.1041C154.617 28.5406 153.851 28.2588 152.9 28.2588C152.196 28.2588 151.561 28.4437 150.997 28.8135C150.434 29.1657 150.03 29.65 149.783 30.2663V32.5114C150.03 33.1278 150.434 33.6208 150.997 33.9907C151.561 34.3429 152.196 34.5189 152.9 34.5189Z" fill="white"/>
<path d="M167.78 38.1376C166.76 38.1376 165.695 38.032 164.585 37.8206C163.476 37.627 162.594 37.3452 161.943 36.9754V33.568C162.665 33.9907 163.528 34.3429 164.532 34.6246C165.553 34.8887 166.486 35.0208 167.332 35.0208C167.948 35.0208 168.397 34.9767 168.678 34.8887C168.961 34.8007 169.101 34.6246 169.101 34.3605C169.101 34.1491 169.005 33.9818 168.811 33.8586C168.635 33.7177 168.3 33.5768 167.807 33.4359C167.332 33.2775 166.778 33.1102 166.143 32.934C165.069 32.6171 164.224 32.2913 163.608 31.9567C162.991 31.6221 162.534 31.1995 162.233 30.6889C161.935 30.1783 161.785 29.5356 161.785 28.7607C161.785 27.3871 162.322 26.3659 163.396 25.6967C164.488 25.0099 165.976 24.6666 167.86 24.6666C168.776 24.6666 169.736 24.7635 170.739 24.9571C171.761 25.1509 172.526 25.4062 173.038 25.7232V29.0777C172.509 28.7255 171.804 28.4349 170.924 28.206C170.061 27.977 169.251 27.8627 168.493 27.8627C167.896 27.8627 167.428 27.9242 167.094 28.0475C166.76 28.1532 166.593 28.3468 166.593 28.6286C166.593 28.8928 166.76 29.0953 167.094 29.2362C167.428 29.377 168.027 29.5532 168.89 29.7644C169.453 29.9054 169.692 29.9669 169.603 29.9493C170.73 30.2487 171.601 30.5833 172.218 30.9531C172.835 31.3229 173.265 31.7631 173.512 32.2737C173.777 32.7668 173.909 33.4007 173.909 34.1756C173.909 35.3906 173.381 36.359 172.325 37.081C171.285 37.7854 169.77 38.1376 167.78 38.1376Z" fill="white"/>
<path d="M180.849 38.1378C179.107 38.1378 177.795 37.6535 176.914 36.685C176.052 35.7164 175.62 34.4399 175.62 32.855V25.0628H180.269V32.3267C180.269 33.7883 180.929 34.519 182.25 34.519C182.849 34.519 183.395 34.3782 183.887 34.0964C184.38 33.8146 184.785 33.4009 185.102 32.855V25.0628H189.751V37.7415H185.262V36.368C184.716 36.9491 184.055 37.3893 183.28 37.6887C182.506 37.9881 181.695 38.1378 180.849 38.1378Z" fill="white"/>
<path d="M192.131 25.0627H196.437V26.4363C196.965 25.8729 197.573 25.4414 198.259 25.142C198.946 24.825 199.676 24.6666 200.451 24.6666C201.403 24.6666 202.16 24.8074 202.724 25.0892C203.305 25.371 203.771 25.7936 204.123 26.357C204.651 25.8288 205.294 25.4149 206.052 25.1157C206.809 24.8163 207.575 24.6666 208.349 24.6666C210.022 24.6666 211.211 25.0981 211.915 25.9609C212.619 26.8061 212.972 28.0299 212.972 29.6323V37.7414H208.534V30.2928C208.534 29.5884 208.402 29.0777 208.137 28.7607C207.874 28.4437 207.433 28.2853 206.818 28.2853C206.025 28.2853 205.382 28.567 204.889 29.1305C204.907 29.4298 204.916 29.8878 204.916 30.504V37.7414H200.478V30.1079C200.478 29.4563 200.364 28.9896 200.135 28.7079C199.906 28.4261 199.5 28.2853 198.92 28.2853C198.021 28.2853 197.247 28.7871 196.595 29.7909V37.7414H192.131V25.0627Z" fill="white"/>
</svg>
