<svg width="208" height="59" viewBox="0 0 208 59" fill="none" xmlns="http://www.w3.org/2000/svg">
<path d="M29.8232 0C25.9493 0 22.1131 0.763123 18.534 2.24554C14.9549 3.72813 11.703 5.90101 8.96354 8.6403C6.22425 11.3797 4.05137 14.6317 2.56878 18.2108C1.08636 21.7899 0.323242 25.6261 0.323242 29.5C0.323242 33.3739 1.08636 37.2101 2.56878 40.7892C4.05137 44.3683 6.22425 47.6203 8.96354 50.3597C11.703 53.099 14.9549 55.2719 18.534 56.7545C22.1131 58.2369 25.9493 59 29.8232 59V44.25C27.8862 44.25 25.9682 43.8685 24.1786 43.1271C22.3891 42.3859 20.763 41.2995 19.3934 39.9298C18.0238 38.5602 16.9373 36.9342 16.1961 35.1446C15.4547 33.3551 15.0732 31.4371 15.0732 29.5C15.0732 27.5629 15.4547 25.6449 16.1961 23.8554C16.9373 22.0658 18.0238 20.4398 19.3934 19.0702C20.763 17.7005 22.3891 16.6141 24.1786 15.8729C25.9682 15.1315 27.8862 14.75 29.8232 14.75V0Z" fill="#0F52FF"/>
<path d="M29.8236 39.3333C35.2544 39.3333 39.6569 34.9308 39.6569 29.5C39.6569 24.0692 35.2544 19.6667 29.8236 19.6667C24.3928 19.6667 19.9902 24.0692 19.9902 29.5C19.9902 34.9308 24.3928 39.3333 29.8236 39.3333Z" fill="#0F52FF"/>
<path d="M0.323242 29.5C0.323242 33.3739 1.08636 37.2101 2.56878 40.7892C4.05137 44.3683 6.22425 47.6203 8.96354 50.3597C11.703 53.099 14.9549 55.2719 18.534 56.7545C22.1131 58.2369 25.9493 59 29.8232 59C33.6972 59 37.5334 58.2369 41.1125 56.7545C44.6916 55.2719 47.9435 53.099 50.6829 50.3597C53.4222 47.6203 55.5951 44.3683 57.0777 40.7892C58.5601 37.2101 59.3232 33.3739 59.3232 29.5H44.5732C44.5732 31.4371 44.1918 33.3551 43.4504 35.1446C42.7092 36.9342 41.6227 38.5602 40.2531 39.9298C38.8834 41.2995 37.2574 42.3859 35.4679 43.1271C33.6783 43.8685 31.7603 44.25 29.8232 44.25C27.8862 44.25 25.9682 43.8685 24.1786 43.1271C22.3891 42.3859 20.763 41.2995 19.3934 39.9298C18.0238 38.5602 16.9373 36.9342 16.1961 35.1446C15.4547 33.3551 15.0732 31.4371 15.0732 29.5H0.323242Z" fill="#5BD0F4"/>
<path d="M39.657 29.5001C39.657 26.8922 38.6209 24.3911 36.7769 22.5469C34.9327 20.7027 32.4317 19.6667 29.8237 19.6667C27.2157 19.6667 24.7146 20.7027 22.8705 22.5469C21.0263 24.3911 19.9902 26.8922 19.9902 29.5001H29.8237H39.657Z" fill="#5BD0F4"/>
<path d="M74.7303 18.4164H71.0664V38.7714H74.7303V18.4164Z" fill="#0F52FF"/>
<path d="M77.1221 31.5604C77.1221 36.2711 80.3789 39.179 84.6825 39.179C88.9861 39.179 92.2429 36.2711 92.2429 31.5604C92.2429 26.8497 88.9861 23.9418 84.6825 23.9418C80.3789 23.9418 77.1221 26.8497 77.1221 31.5604ZM80.786 31.5604C80.786 28.7689 82.4144 27.1405 84.6825 27.1405C86.9506 27.1405 88.579 28.7689 88.579 31.5604C88.579 34.352 86.9506 35.9804 84.6825 35.9804C82.4144 35.9804 80.786 34.352 80.786 31.5604Z" fill="#0F52FF"/>
<path d="M105.336 24.3489V26.2971H105.045C104.173 25.0468 102.777 23.9418 100.276 23.9418C96.845 23.9418 93.7627 26.8497 93.7627 31.3278C93.7627 35.8059 96.845 38.7137 100.276 38.7137C102.777 38.7137 104.173 37.5796 104.987 36.4456H105.278V37.8414C105.278 40.6329 103.649 41.9124 101.265 41.9124C98.8805 41.9124 97.6592 40.6329 97.1648 38.9754L93.879 40.4003C94.6351 42.5811 96.845 44.9947 101.323 44.9947C105.918 44.9947 108.942 42.5811 108.942 37.9285V24.3489H105.336ZM101.381 35.5733C99.1132 35.5733 97.4266 33.9449 97.4266 31.3278C97.4266 28.7107 99.1132 27.0823 101.381 27.0823C103.649 27.0823 105.336 28.7107 105.336 31.3278C105.336 33.9449 103.649 35.5733 101.381 35.5733Z" fill="#0F52FF"/>
<path d="M111.312 31.5605C111.312 36.2712 114.569 39.179 118.873 39.179C123.177 39.179 126.433 36.2712 126.433 31.5605C126.433 26.8497 123.177 23.9419 118.873 23.9419C114.569 23.9419 111.312 26.8497 111.312 31.5605ZM114.976 31.5605C114.976 28.7689 116.605 27.1405 118.873 27.1405C121.141 27.1405 122.769 28.7689 122.769 31.5605C122.769 34.352 121.141 35.9804 118.873 35.9804C116.605 35.9804 114.976 34.352 114.976 31.5605Z" fill="#0F52FF"/>
<path d="M129.31 20.161C129.31 21.6441 130.444 22.6618 131.899 22.6618C133.352 22.6618 134.486 21.6441 134.486 20.161C134.486 18.6781 133.352 17.6603 131.899 17.6603C130.444 17.6603 129.31 18.6781 129.31 20.161ZM133.73 24.3483H130.066V38.7713H133.73V24.3483Z" fill="#5BD0F4"/>
<path d="M136.994 44.5877H140.659V36.9109H140.949C141.763 38.074 143.159 39.179 145.66 39.179C149.091 39.179 152.174 36.2712 152.174 31.5605C152.174 26.8497 149.091 23.9419 145.66 23.9419C143.159 23.9419 141.763 25.0469 140.892 26.2973H140.6V24.349H136.994V44.5877ZM144.555 36.0386C142.287 36.0386 140.6 34.4102 140.6 31.5605C140.6 28.7108 142.287 27.0823 144.555 27.0823C146.824 27.0823 148.509 28.7108 148.509 31.5605C148.509 34.4102 146.824 36.0386 144.555 36.0386Z" fill="#5BD0F4"/>
<path d="M154.311 28.3909C154.311 31.2406 156.695 32.2875 159.719 32.869L160.476 33.0143C162.278 33.3633 163.092 33.7996 163.092 34.7301C163.092 35.6606 162.278 36.3875 160.592 36.3875C158.905 36.3875 157.54 35.6896 157.16 33.5959L153.787 34.4683C154.283 37.4924 156.811 39.179 160.592 39.179C164.255 39.179 166.641 37.4635 166.641 34.4393C166.641 31.4149 164.198 30.6009 160.941 29.9612L160.184 29.8157C158.672 29.5249 157.858 29.1178 157.858 28.1583C157.858 27.286 158.615 26.7334 160.011 26.7334C161.407 26.7334 162.394 27.3149 162.743 28.8852L166.059 27.8675C165.361 25.5412 163.239 23.9418 160.011 23.9418C156.579 23.9418 154.311 25.5412 154.311 28.3909Z" fill="#5BD0F4"/>
<path d="M183.098 38.7714V24.3484H179.435V31.7925C179.435 34.4677 178.127 36.038 175.887 36.038C173.909 36.038 172.805 34.9621 172.805 32.7812V24.3484H169.141V32.9556C169.141 36.5324 171.381 39.004 174.754 39.004C177.399 39.004 178.621 37.8408 179.203 36.6195H179.493V38.7714H183.098Z" fill="#5BD0F4"/>
<path d="M186.349 24.3486V38.7716H190.013V30.1643C190.013 28.187 190.944 27.082 192.63 27.082C194.084 27.082 194.956 27.8962 194.956 29.4665V38.7716H198.621V30.1643C198.621 28.187 199.551 27.082 201.237 27.082C202.692 27.082 203.563 27.8962 203.563 29.4665V38.7716H207.228V29.292C207.228 25.8026 205.075 24.116 202.4 24.116C200.045 24.116 198.97 25.1628 198.272 26.3841H197.98C197.311 25.0175 196.119 24.116 194.025 24.116C191.932 24.116 190.797 25.0465 190.246 26.1515H189.954V24.3486H186.349Z" fill="#5BD0F4"/>
</svg>
