<svg width="218" height="59" viewBox="0 0 218 59" fill="none" xmlns="http://www.w3.org/2000/svg">
<path d="M17.9846 56.351L12.0254 46.0292L20.7709 30.9231L26.3283 40.5496L59.1348 40.5319L49.8258 56.4934L17.9846 56.351Z" fill="#FFAD64"/>
<path d="M64.9925 30.2831L59.0333 40.6047L41.5783 40.5842L47.1363 30.9579L30.7178 2.55551L49.1954 2.63658L64.9925 30.2831Z" fill="#ADD4D3"/>
<path d="M18.9035 2.49985H30.8219L39.5316 17.6268L28.4159 17.6264L12.028 46.0465L2.85938 30.004L18.9035 2.49985Z" fill="#FB8351"/>
<path fill-rule="evenodd" clip-rule="evenodd" d="M32.2746 0.11021L32.2391 0.0485535H17.4952L0.0283203 29.9917L12.0184 50.9709L12.0331 50.9455L16.5657 58.7963L51.2307 58.9515L63.4042 38.0781H63.3232L67.8203 30.289L50.6222 0.190707L32.2746 0.11021ZM43.6801 20.0787H43.772L35.105 5.02594L47.7696 5.08147L62.1658 30.2763L57.6597 38.0812L45.8509 38.0875L49.9683 30.9567L43.6801 20.0787ZM29.2721 4.95173L35.1819 15.1753L26.9995 15.175L12.991 39.4685L12.0355 41.1191L5.69022 30.0167L20.3114 4.95173H29.2721ZM23.5902 30.9029L29.832 20.0783L38.0165 20.0786L44.3055 30.9581L40.1873 38.0906L27.7437 38.0973L23.5902 30.9029ZM14.8622 46.0391L17.2368 41.9211L20.7681 35.8214L24.9136 43.0021L37.3554 42.9954L37.3352 43.0302L54.8279 43.0509L48.4215 54.0356L19.404 53.9057L14.8622 46.0391Z" fill="#333237"/>
<path d="M82.0995 50.422V38.9444H77.8574V37.6559H87.9672V38.9444H83.725V50.422H82.0995Z" fill="white"/>
<path d="M92.484 50.6207C90.8055 50.6207 89.5501 50.2177 88.7176 49.4115C87.8849 48.6054 87.4688 47.3632 87.4688 45.6847C87.4688 44.1783 87.8256 42.9955 88.5392 42.1364C89.2659 41.2642 90.4092 40.8281 91.9686 40.8281C92.8936 40.8281 93.6535 40.9999 94.2482 41.3436C94.8561 41.6739 95.3055 42.1364 95.5962 42.7312C95.9001 43.3126 96.0521 43.9734 96.0521 44.7135V46.4777H89.0942C89.1471 47.1913 89.2991 47.7529 89.5501 48.1627C89.8144 48.5723 90.2042 48.8696 90.7197 49.0547C91.2483 49.2264 91.9422 49.3124 92.8011 49.3124C93.7658 49.3124 94.6512 49.1472 95.4574 48.8168V50.0855C95.0477 50.2573 94.5852 50.3895 94.0698 50.482C93.5675 50.5745 93.039 50.6207 92.484 50.6207ZM89.0942 45.3082H94.605V44.5351C94.605 43.7685 94.4002 43.1805 93.9904 42.7708C93.5941 42.3479 92.9333 42.1364 92.0081 42.1364C90.8849 42.1364 90.1184 42.4008 89.7087 42.9294C89.2991 43.4579 89.0942 44.2509 89.0942 45.3082Z" fill="white"/>
<path d="M102.875 50.6207C101.236 50.6207 100.02 50.1978 99.2276 49.352C98.4346 48.4931 98.0381 47.2838 98.0381 45.7244C98.0381 44.0725 98.4874 42.8435 99.3861 42.0374C100.285 41.2313 101.494 40.8281 103.014 40.8281C103.635 40.8281 104.15 40.8743 104.56 40.9669C104.97 41.0461 105.366 41.1783 105.749 41.3633V42.6518C105.036 42.3083 104.223 42.1364 103.311 42.1364C102.148 42.1364 101.249 42.414 100.615 42.9691C99.9807 43.5109 99.6636 44.4293 99.6636 45.7244C99.6636 46.9667 99.9412 47.8785 100.496 48.46C101.051 49.0283 101.97 49.3124 103.252 49.3124C104.163 49.3124 105.003 49.1407 105.769 48.797V50.1053C105.359 50.2772 104.917 50.4026 104.441 50.482C103.978 50.5745 103.457 50.6207 102.875 50.6207Z" fill="white"/>
<path d="M107.591 50.422V37.0612H109.216V42.0369C109.652 41.6801 110.161 41.3893 110.743 41.1647C111.337 40.9399 112.025 40.8276 112.804 40.8276C113.941 40.8276 114.793 41.1052 115.361 41.6602C115.93 42.2153 116.214 43.0875 116.214 44.2768V50.422H114.588V44.3363C114.588 43.5169 114.403 42.9487 114.033 42.6315C113.677 42.3012 113.082 42.1359 112.249 42.1359C111.721 42.1359 111.172 42.2548 110.604 42.4927C110.049 42.7174 109.586 43.0148 109.216 43.3848V50.422H107.591Z" fill="white"/>
<path d="M122.697 50.6207C121.376 50.6207 120.318 50.3299 119.525 49.7483C118.732 49.1669 118.336 48.3872 118.336 47.4092C118.336 46.5106 118.614 45.7375 119.169 45.0899C119.724 44.4424 120.484 43.8675 121.448 43.3654C120.933 42.85 120.497 42.3676 120.14 41.9183C119.783 41.469 119.605 40.9271 119.605 40.2928C119.605 39.4998 119.876 38.8324 120.417 38.2906C120.972 37.7356 121.752 37.4581 122.757 37.4581C123.735 37.4581 124.494 37.7157 125.036 38.2311C125.578 38.7465 125.849 39.4337 125.849 40.2928C125.849 41.0064 125.658 41.6077 125.274 42.0967C124.891 42.5857 124.342 43.0812 123.629 43.5835L126.919 46.9335C127.143 46.4445 127.256 45.8234 127.256 45.0701V44.7926H128.545V45.0701C128.545 45.5856 128.485 46.0877 128.367 46.5767C128.248 47.0657 128.075 47.4886 127.851 47.8454L129.635 49.6493L128.643 50.5413L127.058 48.9753C126.595 49.5435 125.994 49.9599 125.254 50.2242C124.514 50.4885 123.662 50.6207 122.697 50.6207ZM122.618 42.7905C123.239 42.4073 123.708 42.0439 124.025 41.7002C124.342 41.3434 124.501 40.8941 124.501 40.3523C124.501 39.8501 124.362 39.4536 124.085 39.1628C123.82 38.859 123.378 38.707 122.757 38.707C122.122 38.707 121.66 38.8655 121.369 39.1827C121.091 39.4998 120.953 39.8897 120.953 40.3523C120.953 40.7752 121.098 41.165 121.389 41.5218C121.693 41.8786 122.102 42.3015 122.618 42.7905ZM122.697 49.451C123.463 49.451 124.118 49.3387 124.66 49.1141C125.215 48.8761 125.683 48.526 126.067 48.0635L122.439 44.3565C121.58 44.753 120.939 45.1824 120.516 45.645C120.107 46.0943 119.902 46.6692 119.902 47.3697C119.902 48.0568 120.166 48.5788 120.695 48.9356C121.224 49.2792 121.891 49.451 122.697 49.451Z" fill="#FB8351"/>
<path d="M78.498 28.3895V10.7135H83.6581V24.4371H91.6179V28.3895H78.498Z" fill="#FB8351"/>
<path d="M99.9192 28.6642C97.3209 28.6642 95.3996 28.0877 94.1553 26.935C92.9294 25.7822 92.3164 24.0987 92.3164 21.8846C92.3164 19.689 92.9385 18.0146 94.1828 16.8619C95.4271 15.6908 97.3392 15.1052 99.9192 15.1052C102.518 15.1052 104.439 15.6908 105.683 16.8619C106.946 18.0146 107.577 19.689 107.577 21.8846C107.577 24.0987 106.955 25.7822 105.711 26.935C104.466 28.0877 102.536 28.6642 99.9192 28.6642ZM99.9192 24.9038C100.761 24.9038 101.365 24.6661 101.731 24.1902C102.115 23.7145 102.307 22.9459 102.307 21.8846C102.307 20.8417 102.115 20.0823 101.731 19.6066C101.365 19.1125 100.761 18.8654 99.9192 18.8654C99.0958 18.8654 98.5011 19.1125 98.1352 19.6066C97.7692 20.0823 97.5862 20.8417 97.5862 21.8846C97.5862 22.9459 97.7692 23.7145 98.1352 24.1902C98.5011 24.6661 99.0958 24.9038 99.9192 24.9038Z" fill="#FB8351"/>
<path d="M115.219 33.2204C114.578 33.2204 113.883 33.193 113.133 33.1381C112.383 33.1015 111.669 33.0283 110.992 32.9186C110.333 32.8088 109.784 32.6806 109.345 32.5342V29.2405C109.839 29.4052 110.406 29.5425 111.047 29.6523C111.706 29.7621 112.373 29.8444 113.051 29.8994C113.728 29.9542 114.35 29.9817 114.917 29.9817C115.887 29.9817 116.646 29.9268 117.195 29.817C117.762 29.7255 118.046 29.5517 118.046 29.2955C118.046 29.076 117.954 28.9295 117.772 28.8563C117.589 28.8014 117.241 28.774 116.728 28.774H113.298C111.962 28.774 110.928 28.5636 110.196 28.1427C109.482 27.7035 109.126 27.054 109.126 26.1939C109.126 24.9862 109.793 24.1445 111.129 23.6688C110.379 23.2845 109.83 22.7996 109.482 22.214C109.135 21.6286 108.961 20.8874 108.961 19.9908C108.961 18.3074 109.528 17.0722 110.663 16.2854C111.815 15.4987 113.471 15.1052 115.631 15.1052C116.088 15.1052 116.6 15.1417 117.168 15.215C117.735 15.2699 118.147 15.3248 118.403 15.3797H123.508L123.398 18.5086H121.669C121.998 18.9295 122.163 19.4419 122.163 20.0458C122.163 21.3815 121.77 22.4428 120.983 23.2297C120.214 23.9981 118.998 24.3825 117.332 24.3825C117.094 24.3825 116.838 24.3733 116.564 24.3549C116.289 24.3184 116.033 24.291 115.795 24.2726C115.393 24.3092 115.045 24.3825 114.752 24.4922C114.46 24.602 114.313 24.785 114.313 25.0411C114.313 25.2241 114.395 25.3523 114.56 25.4254C114.725 25.4803 114.954 25.5077 115.246 25.5077H118.238C119.574 25.5077 120.626 25.8188 121.395 26.441C122.163 27.0631 122.547 27.978 122.547 29.1857C122.547 30.4665 121.953 31.4546 120.763 32.15C119.574 32.8636 117.726 33.2204 115.219 33.2204ZM115.658 21.5554C116.463 21.5554 117.021 21.4181 117.332 21.1436C117.643 20.8691 117.799 20.4117 117.799 19.7713C117.799 19.1308 117.643 18.6642 117.332 18.3715C117.021 18.0787 116.463 17.9323 115.658 17.9323C114.908 17.9323 114.359 18.0787 114.011 18.3715C113.682 18.6459 113.517 19.1125 113.517 19.7713C113.517 20.3934 113.673 20.8509 113.984 21.1436C114.313 21.4181 114.871 21.5554 115.658 21.5554Z" fill="#FB8351"/>
<path d="M131.923 28.6642C129.324 28.6642 127.403 28.0877 126.158 26.935C124.932 25.7822 124.319 24.0987 124.319 21.8846C124.319 19.689 124.941 18.0146 126.185 16.8619C127.43 15.6908 129.343 15.1052 131.923 15.1052C134.521 15.1052 136.442 15.6908 137.686 16.8619C138.949 18.0146 139.58 19.689 139.58 21.8846C139.58 24.0987 138.958 25.7822 137.713 26.935C136.469 28.0877 134.539 28.6642 131.923 28.6642ZM131.923 24.9038C132.764 24.9038 133.367 24.6661 133.734 24.1902C134.118 23.7145 134.311 22.9459 134.311 21.8846C134.311 20.8417 134.118 20.0823 133.734 19.6066C133.367 19.1125 132.764 18.8654 131.923 18.8654C131.099 18.8654 130.504 19.1125 130.138 19.6066C129.772 20.0823 129.589 20.8417 129.589 21.8846C129.589 22.9459 129.772 23.7145 130.138 24.1902C130.504 24.6661 131.099 24.9038 131.923 24.9038Z" fill="#FB8351"/>
<path d="M141.849 13.6499V9.91708H147.421V13.6499H141.849ZM142.26 28.3891V19.1394H140.367L140.805 15.3792H147.421V28.3891H142.26Z" fill="white"/>
<path d="M149.896 34.3183V15.3797H154.37L154.617 16.4225C155.146 16.0018 155.723 15.6815 156.345 15.462C156.986 15.2241 157.727 15.1052 158.569 15.1052C160.509 15.1052 162 15.5992 163.043 16.5872C164.104 17.5571 164.635 19.2131 164.635 21.5552C164.635 23.8792 164.077 25.6449 162.961 26.8526C161.844 28.0603 160.307 28.6641 158.349 28.6641C157.05 28.6641 155.953 28.4172 155.055 27.923V34.3183H149.896ZM157.032 24.9038C157.782 24.9038 158.359 24.6385 158.762 24.1079C159.164 23.5772 159.365 22.7538 159.365 21.6376C159.365 20.558 159.173 19.8261 158.789 19.4419C158.422 19.0575 157.855 18.8654 157.086 18.8654C156.318 18.8654 155.642 19.1216 155.055 19.634V24.2452C155.349 24.4647 155.642 24.6294 155.934 24.7391C156.227 24.8489 156.592 24.9038 157.032 24.9038Z" fill="white"/>
<path d="M171.511 28.6641C170.395 28.6641 169.343 28.5819 168.355 28.4172C167.385 28.2707 166.617 28.0786 166.049 27.8407V24.1353C166.69 24.4281 167.449 24.6568 168.327 24.8215C169.225 24.9862 169.984 25.0685 170.605 25.0685C171.264 25.0685 171.758 25.0503 172.088 25.0136C172.436 24.9771 172.609 24.8215 172.609 24.547C172.609 24.236 172.307 23.9981 171.704 23.8334C171.1 23.6687 170.341 23.4308 169.426 23.1198C168.235 22.6989 167.348 22.2049 166.763 21.6376C166.177 21.0704 165.885 20.247 165.885 19.1673C165.885 17.8682 166.397 16.871 167.422 16.1756C168.447 15.462 170.057 15.1052 172.252 15.1052C173.094 15.1052 173.963 15.1691 174.859 15.2973C175.756 15.4253 176.461 15.5718 176.973 15.7365V19.3595C176.424 19.1216 175.82 18.9478 175.162 18.838C174.521 18.7281 173.936 18.6733 173.405 18.6733C172.82 18.6733 172.297 18.7007 171.841 18.7557C171.383 18.8105 171.154 18.966 171.154 19.2222C171.154 19.515 171.411 19.7255 171.923 19.8535C172.453 19.9817 173.158 20.1829 174.036 20.4574C175.025 20.7501 175.793 21.0704 176.342 21.4181C176.909 21.7657 177.303 22.1865 177.523 22.6806C177.76 23.1747 177.879 23.7876 177.879 24.5196C177.879 25.8371 177.338 26.8617 176.259 27.5936C175.198 28.3073 173.615 28.6641 171.511 28.6641Z" fill="white"/>
<path d="M184.529 28.6636C183.01 28.6636 181.821 28.2337 180.961 27.3737C180.101 26.5136 179.672 25.251 179.672 23.5859V15.3792H184.831V23.1743C184.831 24.3086 185.408 24.876 186.56 24.876C186.981 24.876 187.393 24.7845 187.796 24.6015C188.198 24.4185 188.518 24.1897 188.756 23.9153V15.3792H193.916V28.3891H189.086L188.949 27.4011C188.437 27.767 187.804 28.069 187.055 28.3068C186.323 28.5447 185.481 28.6636 184.529 28.6636Z" fill="white"/>
<path d="M196.374 28.3896V15.3797H201.15L201.287 16.4225C201.855 16.0383 202.486 15.7273 203.181 15.4894C203.894 15.2332 204.672 15.1052 205.514 15.1052C206.355 15.1052 207.014 15.2241 207.489 15.462C207.966 15.6998 208.35 16.0475 208.643 16.5049C209.228 16.0841 209.887 15.7456 210.619 15.4894C211.369 15.2332 212.248 15.1052 213.254 15.1052C214.773 15.1052 215.889 15.5077 216.602 16.3128C217.316 17.0996 217.673 18.3074 217.673 19.9359V28.3896H212.595V20.5397C212.595 19.9541 212.476 19.5425 212.238 19.3046C212.001 19.0484 211.607 18.9204 211.058 18.9204C210.344 18.9204 209.759 19.1766 209.302 19.6888C209.338 19.9267 209.356 20.1555 209.356 20.375C209.356 20.5763 209.356 20.8051 209.356 21.0613V28.3896H204.581V20.4574C204.581 19.9267 204.489 19.5425 204.307 19.3046C204.123 19.0484 203.776 18.9204 203.263 18.9204C202.915 18.9204 202.577 19.0119 202.247 19.1948C201.917 19.3778 201.625 19.5973 201.369 19.8535V28.3896H196.374Z" fill="white"/>
<path d="M138.039 50.7845C136.665 50.7845 135.522 50.5267 134.61 50.0114C133.712 49.4827 133.038 48.7493 132.589 47.811C132.139 46.8596 131.915 45.7495 131.915 44.4808C131.915 43.0932 132.126 41.8839 132.549 40.8531C132.971 39.8224 133.632 39.0294 134.531 38.4743C135.43 37.9061 136.592 37.622 138.019 37.622C138.76 37.622 139.427 37.6748 140.022 37.7805C140.63 37.8863 141.198 38.0316 141.727 38.2167V39.644C141.198 39.4457 140.637 39.2937 140.042 39.188C139.447 39.0691 138.82 39.0095 138.159 39.0095C137.009 39.0095 136.097 39.2276 135.423 39.6638C134.75 40.0998 134.267 40.7275 133.976 41.5469C133.685 42.3663 133.539 43.3443 133.539 44.4808C133.539 46.0533 133.91 47.2692 134.65 48.1283C135.403 48.974 136.586 49.3969 138.198 49.3969C138.793 49.3969 139.394 49.3506 140.002 49.2581C140.623 49.1656 141.198 49.0203 141.727 48.822V50.2691C141.211 50.4277 140.65 50.5532 140.042 50.6458C139.447 50.7383 138.78 50.7845 138.039 50.7845Z" fill="white"/>
<path d="M148.401 50.784C146.763 50.784 145.567 50.3677 144.813 49.5351C144.074 48.6894 143.704 47.4735 143.704 45.8877C143.704 44.315 144.081 43.1058 144.833 42.26C145.587 41.4142 146.777 40.9913 148.401 40.9913C150.027 40.9913 151.217 41.4142 151.969 42.26C152.723 43.1058 153.1 44.315 153.1 45.8877C153.1 47.4735 152.73 48.6894 151.989 49.5351C151.25 50.3677 150.054 50.784 148.401 50.784ZM148.401 49.3964C149.524 49.3964 150.318 49.1188 150.78 48.5638C151.243 47.9956 151.474 47.1035 151.474 45.8877C151.474 44.6718 151.237 43.7865 150.76 43.2314C150.298 42.6631 149.512 42.3789 148.401 42.3789C147.292 42.3789 146.499 42.6631 146.023 43.2314C145.561 43.7865 145.33 44.6718 145.33 45.8877C145.33 47.1035 145.561 47.9956 146.023 48.5638C146.486 49.1188 147.278 49.3964 148.401 49.3964Z" fill="white"/>
<path d="M155.086 50.5861V49.2184H156.553V50.5861H155.086Z" fill="white"/>
</svg>
